Simulation
nRows=20
nColumns=15
endheader
time  TH_x TH_y TH_z SC_y  SC_z  SC_x  AC_y  AC_z  AC_x  GH_y  GH_z  GH_yy  EL_x  PS_y
0.0  0.000000  0.000000  0.000000  -21.481837363305974  5.049547332879065  0.3347068766571287  51.940148892749065  6.135082674386932  0.38266516990969746  -178.82095545868785  1.1213741582217618  -138.50217874822897  20.95805330108382  120.000000
0.05362  0.000000  0.000000  0.000000  -20.216041450809197  4.794441718164287  -1.1341469521921073  51.260108447816606  6.196169222508472  0.6182049823479026  -11.472981174053853  2.236112672622011  52.64122115242999  20.2786973372214  120.000000
0.10724  0.000000  0.000000  0.000000  -19.08025863081767  4.53972558703313  -2.559454066556847  50.5510081575654  6.171271430243395  0.8429367214622884  -8.953977572679666  5.509224516023819  48.48941650280127  19.58572009209914  120.000000
0.16086  0.000000  0.000000  0.000000  -18.148004215643738  4.322459803181436  -3.9426186500795457  49.82460047321928  6.103966303458261  1.072288849602375  -8.131195253274793  8.702729675399839  45.769344930274194  18.85504272050322  120.000000
0.21448  0.000000  0.000000  0.000000  -17.466959667944405  4.155772810444078  -5.264270451093475  49.11714645533232  6.052329492544576  1.3265959432228454  -7.630548928231543  11.80920509915362  43.00687148018633  18.08322998300495  120.000000
0.2681  0.000000  0.000000  0.000000  -17.06249640353668  4.050982703481044  -6.492957242185429  48.470852293185956  6.087386255238623  1.6168892725433062  -7.396977301600195  14.846625140786394  40.11765788288978  17.276466069003487  120.000000
0.32172  0.000000  0.000000  0.000000  -16.94612837655855  4.025858030236849  -7.596058969365889  47.91111800281801  6.271285146242032  1.9492639611119094  -7.494641356266693  17.8422150044161  37.201436769999475  16.447243655158008  120.000000
0.37534  0.000000  0.000000  0.000000  -17.123752034902587  4.098861208311507  -8.543505767442971  47.44309222707754  6.64136241673322  2.322124654060398  -7.954893222711526  20.82001849746663  34.37724146734319  15.610595740783193  120.000000
0.42896  0.000000  0.000000  0.000000  -17.600712001156204  4.2905928558387005  -9.30881551577912  47.055198726234615  7.205288081978528  2.7282335357948395  -8.745766565063116  23.792024535308737  31.73718067202958  14.78597111354756  120.000000
0.48258  0.000000  0.000000  0.000000  -18.3765136595968  4.61534239931089  -9.863742224052343  46.73198727186919  7.941637340703534  3.1542382747796816  -9.791902697537004  26.75670322245872  29.35087909681459  13.992628238602498  120.000000
0.5362  0.000000  0.000000  0.000000  -19.443504435982426  5.07702354978493  -10.181275521084098  46.4632592853354  8.809289387306471  3.589832222907907  -10.985447539579  29.700749504645614  27.256837958815236  13.247208964105436  120.000000
0.58982  0.000000  0.000000  0.000000  -20.783845099702685  5.6658366665481275  -10.235478410582976  46.253200975480226  9.75478660798421  4.027894924676389  -12.206402308340595  32.60590164003342  25.46419313353961  12.560668298783517  120.000000
0.64344  0.000000  0.000000  0.000000  -22.37005875837964  6.361522293935627  -10.000105327954628  46.121507003295925  10.716062017140624  4.460122701075772  -13.337075897595291  35.45410436293666  23.94822755931312  11.939056754079957  120.000000
0.69706  0.000000  0.000000  0.000000  -24.163732050115897  7.134184649116946  -9.461796739413984  46.09638317488896  11.638142795842453  4.881319276775293  -14.28225840391878  38.2289342984897  22.656822004529776  11.380379886447674  120.000000
0.75068  0.000000  0.000000  0.000000  -26.116671116947042  7.948659711123177  -8.626383001681589  46.20445669813693  12.481307158149889  5.289251002421332  -14.974871880588708  40.91577906078583  21.510074584270015  10.872592501154566  120.000000
0.8043  0.000000  0.000000  0.000000  -28.170754300989305  8.767974224602053  -7.510386670536339  46.46069370922628  13.218479895561154  5.676701358913805  -15.381686982266332  43.50115047823694  20.41289338422746  10.392264928500328  120.000000
0.85792  0.000000  0.000000  0.000000  -30.25786288844478  9.560297804476274  -6.145343811468939  46.860411906105014  13.83691017064654  6.033999295546719  -15.496730888050807  45.97028452162261  19.26844787258238  9.91126981815981  120.000000
0.91154  0.000000  0.000000  0.000000  -32.30245241240865  10.301046854027767  -4.577067116425625  47.374211839665605  14.33543430049928  6.354641138162071  -15.339263811134273  48.30765764150959  18.003891425821088  9.40819878241889  120.000000
0.96516  0.000000  0.000000  0.000000  -34.228252412317225  10.97670375369342  -2.8702829399679803  47.948857805529016  14.720851100960171  6.634959315806669  -14.95928974848775  50.50032005426048  16.596258342350342  8.878795090250506  120.000000
1.01878  0.000000  0.000000  0.000000  -35.970241750949164  11.585587592466052  -1.108254835983315  48.5146618005217  15.007255103127427  6.878859436478224  -14.431317947499018  52.54270584817386  15.075722149566694  8.34042580192488  120.000000
